<svg width="172" height="44" viewBox="0 0 172 44" fill="none" xmlns="http://www.w3.org/2000/svg">
<path d="M17.2 41.14C16.36 41.86 15.32 42.42 14.08 42.82C12.84 43.18 11.56 43.36 10.24 43.36C7.04 43.36 4.56 42.5 2.8 40.78C1.04 39.06 0.16 36.6 0.16 33.4V4.24H5.92V11.2H15.04V15.94H5.92V33.16C5.92 34.88 6.34 36.2 7.18 37.12C8.06 38.04 9.3 38.5 10.9 38.5C12.66 38.5 14.16 38 15.4 37L17.2 41.14ZM84.1319 0.999997V26.26C84.1319 31.94 82.7119 36.24 79.8719 39.16C77.0719 42.04 73.0519 43.48 67.8119 43.48C64.7319 43.48 62.0119 42.94 59.6519 41.86C57.3319 40.74 55.5519 39.22 54.3119 37.3C53.0319 39.22 51.2519 40.74 48.9719 41.86C46.6919 42.94 43.9919 43.48 40.8719 43.48C35.6319 43.48 31.6119 42.04 28.8119 39.16C26.0119 36.24 24.6119 31.94 24.6119 26.26V0.999997H30.6119V26.08C30.6119 34.12 34.0319 38.14 40.8719 38.14C44.1919 38.14 46.7719 37.16 48.6119 35.2C50.4519 33.24 51.3719 30.2 51.3719 26.08V0.999997H57.3719V26.08C57.3719 30.2 58.2719 33.24 60.0719 35.2C61.9119 37.16 64.4919 38.14 67.8119 38.14C74.6919 38.14 78.1319 34.12 78.1319 26.08V0.999997H84.1319ZM127.658 38.62C125.858 40.14 123.498 41.34 120.578 42.22C117.658 43.06 114.478 43.48 111.038 43.48C107.198 43.48 103.938 42.98 101.258 41.98C98.5777 40.94 96.5577 39.52 95.1977 37.72C93.8377 35.92 93.1577 33.84 93.1577 31.48C93.1577 29.08 93.8377 27.02 95.1977 25.3C96.5977 23.54 98.3977 22.28 100.598 21.52C98.8377 20.72 97.4577 19.52 96.4577 17.92C95.4577 16.28 94.9577 14.4 94.9577 12.28C94.9577 10.08 95.5777 8.1 96.8177 6.34C98.0977 4.58 100.018 3.18 102.578 2.14C105.138 1.06 108.258 0.52 111.938 0.52C114.538 0.52 117.058 0.8 119.498 1.36C121.978 1.92 124.118 2.72 125.918 3.76L124.178 8.56C120.578 6.64 116.578 5.68 112.178 5.68C108.538 5.68 105.758 6.34 103.838 7.66C101.918 8.94 100.958 10.62 100.958 12.7C100.958 14.78 101.698 16.38 103.178 17.5C104.658 18.62 106.778 19.18 109.538 19.18H120.338V24.34H109.298C106.138 24.34 103.658 24.9 101.858 26.02C100.058 27.14 99.1577 28.82 99.1577 31.06C99.1577 33.34 100.178 35.12 102.218 36.4C104.258 37.68 107.298 38.32 111.338 38.32C114.138 38.32 116.798 37.94 119.318 37.18C121.878 36.38 123.978 35.3 125.618 33.94L127.658 38.62ZM163.271 21.22C165.711 21.9 167.631 23.14 169.031 24.94C170.431 26.7 171.131 28.94 171.131 31.66C171.131 35.3 169.751 38.1 166.991 40.06C164.271 42.02 160.291 43 155.051 43H135.011V0.999997H153.851C158.651 0.999997 162.351 1.96 164.951 3.88C167.591 5.8 168.911 8.46 168.911 11.86C168.911 14.06 168.391 15.96 167.351 17.56C166.351 19.16 164.991 20.38 163.271 21.22ZM141.011 5.86V19.3H153.311C156.391 19.3 158.751 18.74 160.391 17.62C162.071 16.46 162.911 14.78 162.911 12.58C162.911 10.38 162.071 8.72 160.391 7.6C158.751 6.44 156.391 5.86 153.311 5.86H141.011ZM154.811 38.14C158.211 38.14 160.771 37.58 162.491 36.46C164.211 35.34 165.071 33.58 165.071 31.18C165.071 26.5 161.651 24.16 154.811 24.16H141.011V38.14H154.811Z" fill="black"/>
</svg>
