<?xml version="1.0" standalone="no"?>
<!DOCTYPE svg PUBLIC "-//W3C//DTD SVG 20010904//EN"
 "http://www.w3.org/TR/2001/REC-SVG-20010904/DTD/svg10.dtd">
<svg version="1.0" xmlns="http://www.w3.org/2000/svg"
 width="260.000000pt" height="260.000000pt" viewBox="0 0 260.000000 260.000000"
 preserveAspectRatio="xMidYMid meet">
<metadata>
Created by potrace 1.11, written by Peter Selinger 2001-2013
</metadata>
<g transform="translate(0.000000,260.000000) scale(0.100000,-0.100000)"
fill="#000000" stroke="none">
<path d="M690 1835 c0 -90 4 -145 10 -145 6 0 10 52 10 135 l0 135 655 0 655
0 0 -135 c0 -83 4 -135 10 -135 6 0 10 55 10 145 l0 145 -675 0 -675 0 0 -145z"/>
<path d="M2005 1537 c-13 -10 -16 -21 -11 -40 5 -22 12 -27 36 -27 38 0 55 28
34 58 -17 25 -33 27 -59 9z"/>
<path d="M760 1460 l0 -81 -31 17 c-42 21 -111 20 -157 -3 -44 -23 -82 -89
-82 -143 0 -51 38 -121 79 -144 50 -29 130 -28 170 2 30 22 31 22 31 2 0 -16
7 -20 30 -20 l30 0 0 225 0 225 -35 0 -35 0 0 -80z m-67 -109 c45 -17 67 -51
67 -102 0 -82 -67 -129 -140 -99 -81 34 -79 167 4 200 28 12 40 12 69 1z"/>
<path d="M1016 1505 c-84 -30 -117 -109 -71 -171 l21 -27 -28 -28 c-22 -22
-28 -37 -28 -71 0 -87 53 -122 180 -122 68 0 93 4 127 22 40 21 42 24 31 47
-8 18 -16 24 -27 19 -89 -38 -153 -44 -206 -18 -39 18 -50 50 -30 81 18 27 37
32 130 35 68 3 70 4 73 31 l3 27 -75 0 c-64 0 -79 3 -102 23 -22 19 -26 29
-20 50 13 52 100 72 185 42 38 -13 41 -13 51 5 17 32 12 39 -42 55 -63 18
-120 19 -172 0z"/>
<path d="M1650 1300 l0 -210 151 0 150 0 -3 28 -3 27 -112 3 -113 3 0 179 0
180 -35 0 -35 0 0 -210z"/>
<path d="M1316 1263 c36 -81 68 -154 71 -161 4 -8 19 -12 40 -10 34 3 35 5 89
128 31 69 62 140 69 158 l14 32 -33 0 c-33 0 -34 -1 -87 -124 l-54 -124 -52
122 c-51 120 -52 121 -87 124 l-35 3 65 -148z"/>
<path d="M2000 1250 l0 -160 35 0 35 0 0 160 0 160 -35 0 -35 0 0 -160z"/>
<path d="M690 770 l0 -140 675 0 675 0 0 140 c0 87 -4 140 -10 140 -6 0 -10
-50 -10 -130 l0 -130 -655 0 -655 0 0 130 c0 80 -4 130 -10 130 -6 0 -10 -53
-10 -140z"/>
</g>
</svg>
